<?xml version="1.0" standalone="no"?><!DOCTYPE svg PUBLIC "-//W3C//DTD SVG 1.1//EN" "http://www.w3.org/Graphics/SVG/1.1/DTD/svg11.dtd"><svg t="1514860168848" class="icon" style="" viewBox="0 0 1024 1024" version="1.1" xmlns="http://www.w3.org/2000/svg" p-id="552" xmlns:xlink="http://www.w3.org/1999/xlink" width="200" height="200"><defs><style type="text/css"></style></defs><path d="M872.296296 285.347443c0-3.611993 1.805996-7.223986 1.805997-12.641976 12.641975-84.881834-41.537919-162.539683-128.22575-187.823633-16.253968-5.417989-32.507937-7.223986-48.761905-7.223986-68.627866 0-130.031746 39.731922-178.79365 111.971782-37.925926-55.985891-95.717813-111.971781-178.793651-111.971782-16.253968 0-32.507937 1.805996-48.761905 7.223986-86.687831 25.283951-139.061728 102.941799-128.225749 187.823633 0 3.611993 1.805996 7.223986 1.805996 10.835979h-7.223986c-39.731922 0-72.239859 32.507937-72.239859 72.239859V469.559083c0 36.119929 27.089947 66.821869 63.209877 70.433862v330.497355c0 39.731922 32.507937 72.239859 72.239859 72.239859h252.839506c14.447972 0 28.895944-3.611993 39.731922-12.641976 10.835979 7.223986 25.283951 12.641975 39.731923 12.641976h252.839506c39.731922 0 72.239859-32.507937 72.239859-72.239859V541.798942c34.313933-5.417989 61.40388-34.313933 61.40388-70.433863v-113.777777c0-37.925926-28.895944-68.627866-66.82187-72.239859z" fill="#FFFFFF" p-id="553"></path><path d="M731.428571 357.587302c43.343915-25.283951 66.821869-59.597884 70.433863-93.911817 7.223986-50.567901-23.477954-93.911817-77.657848-108.359788-9.029982-3.611993-19.865961-3.611993-28.895944-3.611993-92.10582 0-146.285714 122.80776-166.151676 173.375661h-27.089947c-21.671958-52.373898-72.239859-171.569665-164.345679-171.569665-10.835979 0-19.865961 1.805996-28.895943 3.611993-52.373898 16.253968-83.075838 57.791887-77.657848 108.359788 5.417989 34.313933 28.895944 66.821869 68.627865 92.105821H157.121693v113.777777H866.878307v-113.777777h-135.449736z m-428.021164-102.941799c-1.805996-18.059965 12.641975-28.895944 27.089947-30.70194 3.611993-1.805996 5.417989-1.805996 9.029983-1.805997 30.70194 0 65.015873 50.567901 86.687831 99.329806-83.075838-3.611993-121.001764-41.537919-122.807761-66.821869z m307.019401 65.015873c21.671958-48.761905 54.179894-99.329806 86.68783-99.329806 1.805996 0 5.417989 0 9.029983 1.805996 12.641975 3.611993 28.895944 12.641975 27.089947 30.70194-5.417989 25.283951-41.537919 63.209877-122.80776 66.82187zM552.634921 498.455026h252.839506v375.647267h-252.839506zM220.33157 498.455026h252.839506v375.647267h-252.839506z" fill="#EA6133" p-id="554"></path></svg>