<?xml version="1.0" standalone="no"?><!DOCTYPE svg PUBLIC "-//W3C//DTD SVG 1.1//EN" "http://www.w3.org/Graphics/SVG/1.1/DTD/svg11.dtd"><svg t="1515050026141" class="icon" style="" viewBox="0 0 1024 1024" version="1.1" xmlns="http://www.w3.org/2000/svg" p-id="9780" xmlns:xlink="http://www.w3.org/1999/xlink" width="200" height="200"><defs><style type="text/css"></style></defs><path d="M888.02883 961.581468 136.40712 961.581468c-40.688606 0-73.79108-33.103497-73.79108-73.79108L62.61604 227.492903c0-40.687583 33.103497-73.789033 73.79108-73.789033l145.019678 0c9.890729 0 17.908718 8.017989 17.908718 17.908718s-8.017989 17.908718-17.908718 17.908718l-145.019678 0c-20.938873 0-37.973645 17.034772-37.973645 37.971598l0 660.297485c0 20.938873 17.034772 37.973645 37.973645 37.973645l751.62171 0c20.938873 0 37.973645-17.034772 37.973645-37.973645L926.002474 538.079186c0-9.890729 8.017989-17.908718 17.908718-17.908718s17.908718 8.017989 17.908718 17.908718l0 349.710179C961.819909 928.477971 928.716413 961.581468 888.02883 961.581468z" p-id="9781"></path><path d="M626.741665 188.887849 403.981779 188.887849c-9.890729 0-17.908718-8.017989-17.908718-17.908718s8.017989-17.908718 17.908718-17.908718l222.760909 0c9.890729 0 17.908718 8.017989 17.908718 17.908718S636.633417 188.887849 626.741665 188.887849z" p-id="9782"></path><path d="M944.597863 358.408699 79.836039 358.408699c-9.890729 0-17.908718-8.017989-17.908718-17.908718s8.017989-17.908718 17.908718-17.908718l846.166435 0 0-95.099383c0-20.937849-17.034772-37.971598-37.973645-37.971598L740.654412 189.520282c-9.890729 0-17.908718-8.017989-17.908718-17.908718s8.017989-17.908718 17.908718-17.908718l147.374418 0c40.688606 0 73.79108 33.102473 73.79108 73.789033l0 108.079622c0.447206 1.56471 0.686671 3.219476 0.686671 4.927456C962.506581 350.391733 954.488592 358.408699 944.597863 358.408699z" p-id="9783"></path><path d="M341.918351 278.525585c-35.484845 0-64.353697-28.868853-64.353697-64.353697l0-87.400682c0-35.483821 28.868853-64.35165 64.353697-64.35165 35.482798 0 64.350627 28.867829 64.350627 64.35165l0 87.400682C406.268979 249.656732 377.401149 278.525585 341.918351 278.525585zM341.918351 98.236991c-15.735111 0-28.536262 12.800128-28.536262 28.534215l0 87.400682c0 15.735111 12.801151 28.536262 28.536262 28.536262 15.733064 0 28.533192-12.801151 28.533192-28.536262l0-87.400682C370.451544 111.037119 357.651416 98.236991 341.918351 98.236991z" p-id="9784"></path><path d="M682.517598 278.525585c-35.484845 0-64.353697-28.868853-64.353697-64.353697l0-87.400682c0-35.483821 28.868853-64.35165 64.353697-64.35165 35.482798 0 64.350627 28.867829 64.350627 64.35165l0 87.400682C746.868225 249.656732 718.000396 278.525585 682.517598 278.525585zM682.517598 98.236991c-15.735111 0-28.536262 12.800128-28.536262 28.534215l0 87.400682c0 15.735111 12.801151 28.536262 28.536262 28.536262 15.733064 0 28.533192-12.801151 28.533192-28.536262l0-87.400682C711.05079 111.037119 698.250662 98.236991 682.517598 98.236991z" p-id="9785"></path><path d="M962.583333 438.905825c0 9.931663-8.051759 17.984446-17.985469 17.984446-9.932686 0-17.984446-8.052783-17.984446-17.984446 0-9.93371 8.051759-17.985469 17.984446-17.985469C954.531573 420.919333 962.583333 428.972116 962.583333 438.905825" p-id="9786"></path><path d="M666.134703 660.015039 376.284669 660.015039c-9.890729 0-17.908718-8.017989-17.908718-17.908718s8.017989-17.908718 17.908718-17.908718l289.849011 0c9.890729 0 17.908718 8.017989 17.908718 17.908718S676.025432 660.015039 666.134703 660.015039z" p-id="9787"></path><path d="M645.579589 843.751317 396.839783 843.751317c-21.209038 0-38.463832-17.25377-38.463832-38.462808L358.375951 478.924134c0-21.209038 17.254793-38.462808 38.463832-38.462808l248.739806 0c21.209038 0 38.463832 17.25377 38.463832 38.462808L684.043421 805.288508C684.043421 826.497547 666.787604 843.751317 645.579589 843.751317zM396.839783 476.27876c-1.459305 0-2.646397 1.186069-2.646397 2.645373L394.193386 805.288508c0 1.459305 1.187092 2.645373 2.646397 2.645373l248.739806 0c1.459305 0 2.646397-1.186069 2.646397-2.645373L648.225986 478.924134c0-1.459305-1.187092-2.645373-2.646397-2.645373L396.839783 476.27876z" p-id="9788"></path></svg>