<?xml version="1.0" standalone="no"?><!DOCTYPE svg PUBLIC "-//W3C//DTD SVG 1.1//EN" "http://www.w3.org/Graphics/SVG/1.1/DTD/svg11.dtd"><svg t="1515050191145" class="icon" style="" viewBox="0 0 1024 1024" version="1.1" xmlns="http://www.w3.org/2000/svg" p-id="10451" xmlns:xlink="http://www.w3.org/1999/xlink" width="200" height="200"><defs><style type="text/css"></style></defs><path d="M394 458.2H162c-35.3 0-64-28.7-64-64v-232c0-35.3 28.7-64 64-64h232c35.3 0 64 28.7 64 64v232c0 35.4-28.6 64-64 64zM394 926H162c-35.3 0-64-28.7-64-64V630c0-35.3 28.7-64 64-64h232c35.3 0 64 28.7 64 64v232c0 35.4-28.6 64-64 64zM864 926H632c-35.3 0-64-28.7-64-64V630c0-35.3 28.7-64 64-64h232c35.3 0 64 28.7 64 64v232c0 35.4-28.7 64-64 64zM745 493.3c-25.6 0-49.8-10-67.9-28.1l-119-119c-37.4-37.4-37.4-98.3 0-135.8l119-119c18.1-18.1 42.2-28.1 67.9-28.1 25.6 0 49.8 10 67.9 28.1l119 119c37.4 37.4 37.4 98.3 0 135.8l-119 119c-18.2 18.1-42.3 28.1-67.9 28.1z m0-366.1c-8.5 0-16.6 3.3-22.6 9.4l-119 119c-12.5 12.5-12.5 32.8 0 45.3l119 119c6 6 14.1 9.4 22.6 9.4 8.5 0 16.6-3.3 22.6-9.4l119-119c12.5-12.5 12.5-32.8 0-45.3l-119-119c-6-6.1-14.1-9.4-22.6-9.4z" p-id="10452"></path></svg>