<?xml version="1.0" standalone="no"?><!DOCTYPE svg PUBLIC "-//W3C//DTD SVG 1.1//EN" "http://www.w3.org/Graphics/SVG/1.1/DTD/svg11.dtd"><svg t="1515049786299" class="icon" style="" viewBox="0 0 1024 1024" version="1.1" xmlns="http://www.w3.org/2000/svg" p-id="6620" xmlns:xlink="http://www.w3.org/1999/xlink" width="200" height="200"><defs><style type="text/css"></style></defs><path d="M430.3872 700.032l162.5088 0c20.096 0 32.3328-4.8128 36.6592-14.464s6.4768-17.8688 6.4768-24.704l0-66.1248c0-15.6416-4.8896-25.216-14.72-28.6976-9.8048-3.5072-17.792-5.248-23.9616-5.248l-170.9056 0c-21.8112 0-34.3552 4.8896-37.6832 14.72-3.3536 9.8304-4.992 18.6368-4.992 26.4448l0 57.3952c-0.1792 6.8352 2.2528 15.3088 7.2192 25.4464S409.1136 700.032 430.3872 700.032zM420.2752 618.0096c0-8.064 1.3568-13.5424 4.0192-16.4352s9.3696-4.3008 20.096-4.3008l132.992 0c9.5488 0 15.488 1.1776 17.8432 3.5584 2.3296 2.3552 3.968 4.6848 4.8896 6.9376s1.3824 5.5296 1.3824 9.728l0 25.8048c0 7.936-1.8432 13.2864-5.5296 16.0512-3.712 2.7648-8.8064 4.1728-15.36 4.1728l-132.736 0c-11.7248 0-19.2768-1.536-22.6304-4.5568s-5.0176-8.0128-5.0176-14.9248L420.224 618.0096z" p-id="6621"></path><path d="M585.2672 755.5328c2.816 2.816 10.4192 6.2464 22.7584 10.24s26.1632 6.5024 41.4976 7.5008c17.7664 1.5104 30.6176 0 38.5536-4.5056s13.184-9.6768 15.7184-15.488c2.5856-5.8368 4.3776-12.4928 5.4272-19.9936 1.024-7.5008 1.5616-16.0768 1.5616-25.7536L710.784 367.7952c0-5.6832-0.8704-11.3664-2.6624-17.1264-1.7408-5.76-3.9936-10.2912-6.7328-13.6192s-6.9376-6.2976-12.7232-8.8832c-5.76-2.5856-12.0576-3.8656-18.8928-3.8656L363.7504 324.3008c-17.1776 0-28.7488 2.8672-34.7392 8.6272s-9.7536 15.0528-11.2384 27.8784c-1.3312 10.0096-1.6896 25.8304-1.1264 47.488s0.512 47.6928-0.256 78.1312-1.5872 56.0384-2.5088 76.8768-3.0464 45.4144-6.3744 73.7536-8.5504 51.9424-15.616 70.8864-10.88 29.8752-11.3664 32.8704c-1.664 9.0112-0.9216 15.7952 2.2528 20.3776s8.0128 6.9888 14.4896 7.2448 12.6208-3.6352 18.3808-11.6224 11.6224-24.704 17.6128-50.1248 9.8816-45.5424 11.6224-60.3648 3.2-31.1808 4.3776-48.9984 1.9968-36.2496 2.5088-55.2448l1.9968-92.7488c1.664-26.8288 1.7408-46.5664 0.256-59.2384s-0.3328-20.7104 3.5072-24.1152 11.4944-5.12 22.9888-5.12l268.2624 0c10.496 0 17.3824 1.792 20.6336 5.376s4.864 11.6992 4.864 24.3712l0 313.0112c0 13.824-2.7392 23.2448-8.2432 28.2624s-16.8192 4.8128-33.9968-0.512-27.6736-8.064-31.488-8.2432c-5.504-0.1792-10.1888 0.9984-14.1312 3.5072s-6.2976 5.9136-7.1168 10.24-0.7424 7.8336 0.256 10.496S582.4256 752.7168 585.2672 755.5328z" p-id="6622"></path><path d="M388.0192 479.2832c-5.8368 0-10.5728 1.8688-14.2592 5.5808-3.6864 3.7376-5.4528 8.0384-5.376 12.928s1.9456 9.088 5.632 12.672c3.6864 3.5584 8.0128 5.3248 13.0048 5.3248l251.7504 0c4.3264 0 8.2944-1.6896 11.8784-5.0944 3.584-3.3792 5.4528-7.6544 5.632-12.7744 0-4.9664-1.792-9.3184-5.376-13.056-3.584-3.712-7.6288-5.5808-12.1344-5.5808l-108.7488 0 0-38.9888 96 0c5.1712 0 9.6256-1.9456 13.3632-5.8624s5.4272-8.32 4.992-13.2352-2.432-9.0368-5.9904-12.3648-7.7056-5.0176-12.3648-5.0176l-96 0 0-10.496c0-4.8128-1.7408-9.1904-5.2736-13.1328-3.5072-3.9168-7.6288-6.0416-12.3392-6.3744-5.4016-0.1792-9.9072 1.664-13.4912 5.504-3.584 3.8144-5.376 8.4992-5.376 14.0032l0 10.496-90.752 0c-5.9904 0-11.0848 2.1504-15.2576 6.4256s-6.0416 8.7808-5.632 13.5424 2.5088 8.7296 6.2464 11.8528 8.6272 4.6848 14.6176 4.6848l90.752 0 0 38.9888L388.0192 479.3088z" p-id="6623"></path><path d="M153.9584 930.8416 627.712 930.8416c0.1792 0 0.3584 0 0.5632 0 0.1536 0 16.1792-0.3584 36.1984 3.8912 32.8704 6.9888 51.0208 20.7872 60.4672 31.1296 3.5328 3.8656 8.3712 5.8368 13.2352 5.8368 4.3264 0 8.6528-1.5616 12.0832-4.6848 7.3216-6.6816 7.8336-18.0224 1.152-25.344-43.392-47.5392-117.6832-46.8736-123.9296-46.72L153.9584 894.9504c-41.3184 0-74.9568-33.6384-74.9568-74.9568L79.0016 247.2704c0-41.344 33.6128-74.9568 74.9568-74.9568l113.2544 0 0 26.112c0 9.9072 8.0384 17.9456 17.92 17.9456 9.9072 0 17.9456-8.0384 17.9456-17.9456l0-26.112 392.6272 0 0 26.112c0 9.9072 8.0384 17.9456 17.92 17.9456 9.9072 0 17.92-8.0384 17.92-17.9456l0-26.112 113.2544 0c41.3184 0 74.9568 33.6128 74.9568 74.9568l0 572.7744c0 41.344-33.6384 74.9568-74.9568 74.9568l-37.376 0c-9.9072 0-17.9456 8.0384-17.9456 17.92 0 9.9072 8.0384 17.9456 17.9456 17.9456l37.376 0c61.1072 0 110.8224-49.7152 110.8224-110.8224L955.6224 247.2704c0-61.1072-49.7152-110.8224-110.8224-110.8224l-113.2544 0 0-20.48c0-9.9072-8.0384-17.92-17.92-17.92-9.9072 0-17.92 8.0384-17.92 17.92l0 20.48L303.0784 136.448l0-20.48c0-9.9072-8.0384-17.92-17.9456-17.92-9.9072 0-17.92 8.0384-17.92 17.92l0 20.48L153.9584 136.448c-61.1072 0-110.8224 49.7152-110.8224 110.8224l0 572.7744C43.136 881.1264 92.8512 930.8416 153.9584 930.8416z" p-id="6624"></path></svg>